<?xml version="1.0" encoding="UTF-8" standalone="no"?>
<!DOCTYPE svg PUBLIC "-//W3C//DTD SVG 1.1//EN" "http://www.w3.org/Graphics/SVG/1.1/DTD/svg11.dtd">
<svg width="100%" height="100%" viewBox="0 0 517 160" version="1.1" xmlns="http://www.w3.org/2000/svg" xmlns:xlink="http://www.w3.org/1999/xlink" xml:space="preserve" xmlns:serif="http://www.serif.com/" style="fill-rule:evenodd;clip-rule:evenodd;stroke-linejoin:round;stroke-miterlimit:2;">
    <g transform="matrix(1,0,0,1,0,-186)">
        <g transform="matrix(1.04225,0,0,1,0,186)">
            <rect id="Dark" x="0" y="0" width="495.582" height="160" style="fill:none;"/>
            <g id="Dark1" serif:id="Dark">
                <g transform="matrix(0.988553,0,0,1.03032,-50.0904,-137.034)">
                    <text x="223px" y="241px" style="font-family:'Arial-BoldMT', 'Arial', sans-serif;font-weight:700;font-size:129.832px;fill:white;">si</text>
                    <text x="331.278px" y="241px" style="font-family:'Arial-BoldMT', 'Arial', sans-serif;font-weight:700;font-size:129.832px;fill:rgb(5,103,179);">cim</text>
                </g>
                <g transform="matrix(0.612823,0,0,0.638715,-9.75017,-44.0163)">
                    <g transform="matrix(44.704,0,0,44.704,729.343,294)">
                    </g>
                    <text x="294.528px" y="294px" style="font-family:'ArialMT', 'Arial', sans-serif;font-size:44.704px;fill:white;">Hochschule Mittweida</text>
                </g>
                <g transform="matrix(0.959462,0,0,1,0,0)">
                    <path d="M24.476,108.586C24.142,108.5 23.808,108.402 23.476,108.291C15.628,105.686 11.372,97.2 13.977,89.352C14.236,88.571 14.554,87.825 14.923,87.119C5.984,79.674 2.023,67.242 5.907,55.54C8.553,47.569 14.319,41.504 21.399,38.25C21.589,37.468 21.812,36.688 22.07,35.911C27.135,20.652 43.637,12.375 58.896,17.441C59.775,17.733 60.631,18.063 61.463,18.428C69,10.491 80.721,7.146 91.789,10.82C98.281,12.975 103.509,17.2 106.984,22.519C113.601,20.523 120.876,20.475 127.929,22.817C140.499,26.989 149.096,37.667 151.223,49.87C151.608,49.98 151.992,50.098 152.375,50.225C166.763,55.001 174.566,70.56 169.79,84.947C167.085,93.096 160.92,99.133 153.469,101.968C145.175,121.006 123.543,130.923 103.454,124.255C100.245,123.19 97.257,121.761 94.521,120.031C94.69,119.591 94.84,119.122 94.973,118.653C97.029,118.53 99.257,118.563 101.265,117.942C103.845,117.143 107.601,112.949 107.601,112.949C107.601,112.949 106.998,113.728 106.695,114.033C106.997,113.729 107.535,113.336 107.899,113.111C109.266,112.264 110.059,111.871 111.562,111.298C113.665,110.496 113.739,110.738 115.803,109.859C118.338,108.78 119.095,107.371 118.854,107.548C118.744,107.628 118.513,107.767 118.513,107.767C118.513,107.767 121.278,106.699 122.56,106.015C122.754,105.912 122.947,105.802 123.137,105.687C123.214,105.768 123.291,105.848 123.368,105.928C123.978,106.555 124.644,107.132 125.349,107.648C130.538,111.448 139.76,112.79 144.66,105.683C145.332,104.71 145.881,103.64 146.283,102.528C146.457,102.045 146.608,101.553 146.735,101.054C147.7,99.021 148.956,97.137 149.9,95.091C150.602,93.567 151.231,91.868 151.624,90.233C151.737,89.762 151.874,88.916 151.932,88.548C152.224,87.484 152.639,86.454 152.913,85.384C154.248,80.161 154.411,74.73 153.165,69.47C152.883,68.276 152.113,66.452 151.613,65.333C151.437,61.118 149.512,57.309 146.197,54.679C144.822,53.588 143.318,52.763 141.721,52.118C140.996,51.825 139.78,51.406 138.988,51.14C135.748,46.791 131.577,47.168 131.092,47.164C129.639,47.151 128.337,47.39 127.173,47.856C126.655,47.864 126.137,47.857 125.62,47.836C124.657,47.739 121.955,47.509 120.477,47.803C118.71,48.155 117.114,49.052 115.485,49.737C114.935,49.969 114.32,50.217 113.725,50.352C113.563,50.389 113.399,50.433 113.235,50.438C112.885,50.345 112.362,50.21 112.035,50.145C109.256,49.597 106.236,50.127 103.745,51.326C99.968,53.144 97.498,56.547 96.122,60.293C95.03,60.512 93.94,60.739 92.842,60.927C91.727,61.117 90.606,61.285 89.474,61.215C89.223,61.2 88.972,61.179 88.728,61.13C86.417,58.896 83.066,57.411 79.842,57.315C79.342,57.3 78.784,57.348 78.196,57.438C76.946,54.567 75.08,51.958 72.571,50.038C70.63,48.552 68.361,47.487 65.976,46.947C65.686,46.882 65.232,46.809 64.876,46.755C64.083,46.52 62.617,46.095 62.067,45.995C58.572,45.356 54.962,45.603 51.532,46.439C49.847,46.85 48.25,47.394 46.647,48.054C46.318,48.189 45.809,48.436 45.457,48.61C42.654,49.38 39.761,49.843 36.959,50.626C34.084,51.43 31.487,52.416 28.831,53.72C27.724,54.263 24.458,56.424 23.616,57.436C23.047,58.121 21.042,62.692 20.848,63.5C20.183,66.277 20.049,69.097 20.046,71.942C20.045,73.317 20.116,74.691 20.115,76.066C20.114,77.331 19.672,78.512 19.62,79.77C19.379,85.592 21.493,92.086 25.676,96.292C26.859,97.481 28.196,98.493 29.642,99.308C29.525,99.377 29.416,99.444 29.313,99.506C25.344,101.919 24.187,105.149 24.476,108.586Z" style="fill:rgb(5,103,179);"/>
                </g>
                <g id="Saxony" transform="matrix(0.0612303,-0.00318397,0.0030549,0.0638173,13.3445,53.6661)">
                    <path d="M1892.34,787.896C1891,794.245 1889.18,800.533 1886.67,806.518C1884.68,811.267 1882.07,815.802 1878.94,819.89C1856.99,848.56 1819.34,826.142 1798.45,809.186C1794.58,806.049 1790.96,802.587 1787.67,798.85C1776.68,786.366 1765.05,772.536 1761.28,755.797C1760.64,752.978 1744.24,735.71 1741.75,728.688C1734.08,707.016 1746.37,678.53 1727.39,661.202C1718.45,653.042 1709.45,657.56 1699.25,654.912C1692.34,653.119 1686.22,649.042 1679.46,646.757C1661.74,640.766 1641.2,635.856 1622.69,633.151C1601.29,630.023 1568.33,624.494 1549.7,640.073C1533.9,653.288 1548.8,679.668 1562.87,687.047C1572.13,691.902 1581.44,696.674 1590.89,701.14C1599.65,705.279 1598.44,704.868 1600.89,707.608C1603.35,710.347 1605.26,715.349 1605.62,717.578C1606.16,721.034 1610.04,723.088 1611.51,726.266C1612.97,729.441 1613.22,735.05 1612.62,738.446C1610.68,749.514 1600.31,756.933 1590.82,761.399C1565.47,773.333 1535.85,777.837 1512.28,793.363C1507.85,796.281 1503.71,799.682 1499.92,803.391C1498.13,805.147 1497.72,809.875 1494.83,810.94C1464.68,822.036 1463.69,818.193 1433.05,828.163C1398,839.564 1379.39,847.653 1347.13,865.471C1332.23,873.702 1310.48,888.762 1297.87,900.245C1291.31,906.223 1286.38,918.671 1276.56,921.181C1255.29,926.618 1231.9,922.231 1210.52,922.58C1179.25,923.089 1144.29,927.573 1117.07,944.104C1099.47,954.793 1086.45,970.683 1079.67,990.169C1075.42,1002.38 1076.72,1002.45 1075.38,1015.35C1075.05,1018.55 1075.77,1022.39 1073.7,1024.85C1071.7,1027.23 1057.48,1029.62 1054.98,1029.69C1037.89,1030.15 1021.82,1023.14 1005.72,1018.74C997.274,1016.43 988.431,1013.93 980.067,1017.88C972.75,1021.34 968.387,1029.34 965.425,1036.35C964.103,1039.48 964.434,1045.36 961.517,1047.99C958.161,1051.02 952.515,1049.99 948.752,1051.46C937.363,1055.92 926.83,1061.67 917.994,1070.3C898.865,1088.98 884.001,1111.21 861.65,1126.38C848.677,1135.19 831.707,1138.33 816.316,1136.43C806.045,1135.16 801.944,1131.78 792.602,1136.19C769.677,1147.01 767.572,1176.58 756.785,1196.53C752.018,1205.35 745.715,1213.93 735.13,1215.99C716.654,1219.59 703.027,1208.39 686.966,1201.43C670.098,1194.13 662.715,1192.15 644.345,1190.99C608.65,1188.73 571.111,1211.12 540.111,1223.15C525.775,1228.71 513.021,1231.92 497.84,1234.3C494.038,1234.89 486.405,1233.78 482.666,1235.46C435.144,1256.95 388.771,1296.17 364.373,1342.61C360.223,1350.51 356.667,1358.75 353.724,1367.17C348.558,1381.96 347.504,1396.04 340.924,1410.23C338.518,1415.42 334.952,1422.65 328.893,1424.72C318.414,1428.3 307.497,1405.83 305.422,1402.46C288.091,1374.38 276.752,1342.67 251.693,1320.08C244.19,1313.31 236.804,1309.38 227.039,1306.83C214.298,1303.49 200.766,1308.13 187.844,1305.84C169.556,1302.61 153.032,1294 137.976,1283.3C114.875,1266.88 90.629,1240.38 87.891,1210.6C87.156,1202.6 87.901,1195.04 90.825,1187.56C93.749,1180.08 97.734,1180.15 95.123,1170.99C88.735,1148.57 68.009,1132.88 62.695,1110.19C59.789,1097.77 68.238,1088.09 78.318,1082.24C81.129,1080.6 86.133,1079.9 88.424,1077.19C90.509,1074.72 89.853,1070.2 90.826,1067.47C94.551,1057.05 104.087,1045.58 116.49,1047.01C130.126,1048.58 143.275,1056.61 148.914,1069.52C153.952,1081.06 152.149,1081.58 150.293,1091.47C150.088,1092.56 146.447,1099.53 150.23,1100.69C153.366,1101.65 156.85,1100.15 159.926,1099.01C168.078,1096 176.149,1092.73 184.015,1089.03C194.304,1084.2 204.391,1078.92 214.347,1073.43C224.426,1067.88 234.286,1061.92 244.095,1055.9C253.496,1050.13 265.166,1041.86 272.681,1034.04C280.88,1025.51 282.833,1025.76 289.326,1019.27C296.626,1011.97 304.42,1012.4 307.12,982.554C308.43,968.079 303.156,955.981 293.534,945.403C290.455,942.018 286.979,938.984 283.337,936.214C278.732,932.71 268.837,931.067 269.42,923.459C270.701,906.738 291.778,900.645 295.211,884.998C296.135,880.788 294.634,876.807 291.216,873.756C288.866,871.658 285.51,871.082 282.677,869.703C281.263,869.015 278.199,866.891 279.582,866.142C316.868,845.945 415.867,795.781 449.537,779.736C463.768,772.954 479.136,768.717 493.278,761.751C498.666,759.098 507.151,757.695 508.298,751.799C509.2,747.159 502.866,729.273 502.242,727.584C494.872,707.628 479.376,691.437 463.429,677.999C442.128,660.05 417.746,646.233 395.825,629.133C390.377,624.883 384.743,617.107 377.987,614.415C372.029,612.04 363.791,614.356 357.806,613.922C351.537,613.467 345.295,612.544 339.128,611.331C311.434,605.885 285.933,591.765 267.029,570.762C233.178,533.152 220.244,476.232 224.771,426.742C226.762,404.989 234.738,384.804 235.849,362.9C236.938,341.411 236.903,319.875 237.994,298.386C239.628,266.174 241.889,234.207 250.994,203.137C252.164,199.146 260.986,175.707 264.001,172.428C268.876,167.126 288.869,158.9 295.064,156.235C328.632,141.794 361.276,131.238 397.237,123.093C444.996,112.276 494.06,107.212 541.653,95.906C551.16,93.647 559.315,88.542 568.436,85.306C586.478,78.907 604.354,73.683 623.167,70.08C655.994,63.794 690.244,62.325 722.988,70.01C732.006,72.127 755.819,81.545 759.485,82.647C765.206,84.366 771.271,84.718 777.025,86.324C792.24,90.571 806.525,98.204 818.569,108.414C850.613,135.577 864.277,178.877 867.925,219.432C868.849,229.714 869.28,240.058 869.096,250.38C868.939,259.134 860.699,278.779 871.954,284.634C881.815,289.765 892.286,293.77 903.551,293.913C943.34,294.417 975.078,261.26 1015.34,264.465C1028.46,265.509 1041.59,272.973 1050.16,282.799C1054.11,287.329 1056.8,292.966 1061.18,297.072C1065.48,301.091 1070.78,303.917 1075.88,306.854C1101.13,321.394 1129.07,329.249 1157.92,332.467C1187.54,335.771 1217.23,333.979 1246.77,330.438C1276.25,326.904 1305.49,321.468 1335.01,318.183C1340.71,317.549 1346.48,318.961 1352.21,318.703C1365.36,318.112 1379.61,311.263 1388.17,301.222C1406.25,280.004 1413.07,254.657 1423.8,229.254C1432.65,208.281 1444.77,186.996 1466.81,177.711C1476.58,173.592 1488.1,170.699 1498.64,173.332C1505.98,175.164 1512.96,178.328 1520.37,179.881C1543.27,184.688 1566.72,184.217 1589.68,180.216C1607.94,177.031 1627.16,171.101 1644.21,164.908C1660.47,159.006 1675.75,148.87 1693.19,146.294C1706.83,144.281 1720.31,150.285 1733.6,151.568C1749.16,153.07 1764.8,153.959 1780.43,154.194C1792.71,154.379 1805.02,153.875 1817.26,152.826C1820.54,152.545 1823.72,151.443 1826.78,150.223C1827.55,149.917 1828.25,149.176 1828.42,148.368C1828.59,147.591 1827.27,145.414 1827.64,146.116C1835.63,161.217 1842.49,171.919 1856.68,182.278C1889.29,206.091 1933.03,209.639 1963.74,236.601C1979.04,250.04 1987.19,268.921 1986.83,289.257C1986.71,296.493 1983.25,301.601 1984.69,308.991C1989.85,335.424 2005.57,357.453 2010.48,384.058C2021.23,442.256 2015.96,501.521 1998.51,557.905C1993.06,575.542 1985.1,592.341 1979.63,609.975C1977.11,618.104 1976.33,626.697 1973.93,634.863C1969.33,650.515 1962.22,666.596 1954.68,681.019C1935.54,717.61 1910.38,750.703 1892.34,787.896Z" style="fill:white;fill-rule:nonzero;"/>
                </g>
            </g>
        </g>
    </g>
</svg>
